<?xml version="1.0" encoding="utf-8"?>
<!-- Generator: Adobe Illustrator 19.2.1, SVG Export Plug-In . SVG Version: 6.00 Build 0)  -->
<svg version="1.1" id="Layer_1" xmlns="http://www.w3.org/2000/svg" xmlns:xlink="http://www.w3.org/1999/xlink" x="0px" y="0px"
	 viewBox="0 0 56 112" enable-background="new 0 0 56 112" xml:space="preserve">
<path d="M39.7,20.9l-1.1-1.1c-0.3-0.3-0.9-0.3-1.3,0L25.1,32.1l-6.4-6.4c-0.3-0.3-0.9-0.3-1.3,0l-1.1,1.1c-0.3,0.3-0.3,0.9,0,1.3
	l8.2,8.2c0.2,0.2,0.4,0.3,0.6,0.3s0.5-0.1,0.6-0.3l14.1-14.1C40.1,21.8,40.1,21.2,39.7,20.9L39.7,20.9z"/>
<path fill="#A4A4A4" d="M39.7,76.9l-1.1-1.1c-0.3-0.3-0.9-0.3-1.3,0L25.1,88.1l-6.4-6.4c-0.3-0.3-0.9-0.3-1.3,0l-1.1,1.1
	c-0.3,0.3-0.3,0.9,0,1.3l8.2,8.2c0.2,0.2,0.4,0.3,0.6,0.3c0.2,0,0.5-0.1,0.6-0.3l14.1-14.1C40.1,77.8,40.1,77.2,39.7,76.9L39.7,76.9
	z"/>
</svg>
