<?xml version="1.0" encoding="utf-8"?>
<!-- Generator: Adobe Illustrator 19.2.1, SVG Export Plug-In . SVG Version: 6.00 Build 0)  -->
<svg version="1.1" id="Layer_1" xmlns="http://www.w3.org/2000/svg" xmlns:xlink="http://www.w3.org/1999/xlink" x="0px" y="0px"
	 width="9px" height="19px" viewBox="0 0 9 19" style="enable-background:new 0 0 9 19;" xml:space="preserve">
<path d="M6.5,3.4c0.8,0,1.7,0,2.5,0C9,2.3,9,1.2,9,0C8,0,7,0,6,0C2.8,0.2,1.6,2.4,2,6.1H0v3.5h2.1c0,3.1,0,6.2,0,9.3
	c1.3,0,2.7,0,3.9,0c0-3.1,0-6.2,0-9.3h3V6.1H6C6,5.1,6,3.7,6.5,3.4z"/>
</svg>
