<?xml version="1.0" encoding="utf-8"?>
<!-- Generator: Adobe Illustrator 19.2.1, SVG Export Plug-In . SVG Version: 6.00 Build 0)  -->
<svg version="1.1" id="Layer_1" xmlns="http://www.w3.org/2000/svg" xmlns:xlink="http://www.w3.org/1999/xlink" x="0px" y="0px"
	 width="18px" height="15px" viewBox="0 0 18 15" style="enable-background:new 0 0 18 15;" xml:space="preserve">
<style type="text/css">
	.st0{fill:#FFFFFF;}
</style>
<g id="W6EeEF_1_">
	<g>
		<path class="st0" d="M11.6,0.2c1.7-0.5,3.2,0.2,3.8,1.1c0.7-0.2,1.4-0.5,2.2-0.7c0,0.8-0.5,1.5-0.9,1.7C17.4,2.5,18,1.8,18,1.8
			c-0.2,1-1,1.7-1.6,2.1C16.1,10.7,13,15.2,5.7,15c-0.5,0,0.1,0-0.5,0c-0.4,0-4.4-0.4-5.1-1.9c2.4,0.2,4.1-0.4,4.9-1.1
			c-1-0.3-2.9-0.5-3.2-3c0.4,0.1,0.6,0.2,1.3,0.1C1.9,8.3,0.4,7.6,0.5,5.3C0.8,5.6,1.6,5.8,2,5.8C1.2,5.6-0.1,2.4,1,0.9
			c2,1.9,3.9,3.6,7.6,3.8C8.7,2.3,9.8,0.8,11.6,0.2z"/>
	</g>
</g>
</svg>
