<?xml version="1.0" encoding="utf-8"?>
<!-- Generator: Adobe Illustrator 19.2.1, SVG Export Plug-In . SVG Version: 6.00 Build 0)  -->
<svg version="1.1" id="Layer_1" xmlns="http://www.w3.org/2000/svg" xmlns:xlink="http://www.w3.org/1999/xlink" x="0px" y="0px"
	 width="74.7px" height="72.3px" viewBox="0 0 74.7 72.3" style="enable-background:new 0 0 74.7 72.3;" xml:space="preserve">
<style type="text/css">
	.st0{fill:#81B3D2;}
</style>
<g>
	<path class="st0" d="M29.5,65.3h16V41.4h-16C29.5,41.4,29.5,65.3,29.5,65.3z M42.6,62.4H32.4V44.3h10.1V62.4z"/>
	<path class="st0" d="M72.6,39.4l2.1-2.1l-9.9-9.9v-27H51v13.2L37.3,0L0,37.4l2.1,2.1l7.8-7.8v37.8H6v2.9h63.9v-2.9h-5.1V31.6
		L72.6,39.4z M53.9,3.4h7.9v21.1l-7.9-7.9V3.4z M61.8,69.4h-49V28.7L37.3,4.2l24.5,24.5V69.4z"/>
	<path class="st0" d="M29.8,27.2c0,4.3,3.5,7.8,7.7,7.8s7.8-3.5,7.8-7.8c0-4.3-3.5-7.8-7.8-7.8S29.8,22.9,29.8,27.2z M37.5,22.2
		c2.7,0,5,2.2,5,5s-2.2,5-5,5s-5-2.2-5-5S34.8,22.2,37.5,22.2z"/>
	<rect x="16.9" y="41.4" class="st0" width="3" height="3.9"/>
	<rect x="22.8" y="41.4" class="st0" width="3" height="3.9"/>
	<rect x="16.9" y="47.4" class="st0" width="3" height="3.9"/>
	<rect x="22.8" y="47.4" class="st0" width="3" height="3.9"/>
	<rect x="48.8" y="41.4" class="st0" width="3" height="3.9"/>
	<rect x="54.8" y="41.4" class="st0" width="3" height="3.9"/>
	<rect x="48.8" y="47.4" class="st0" width="3" height="3.9"/>
	<rect x="54.8" y="47.4" class="st0" width="3" height="3.9"/>
</g>
</svg>
