<svg xmlns="http://www.w3.org/2000/svg" width="32" height="20"><path fill="#454545" d="M29 0H3a3.01 3.01 0 0 0-3 3v14a3.01 3.01 0 0 0 3 3h26a3.01 3.01 0 0 0 3-3V3a3.01 3.01 0 0 0-3-3zM14.403 15.854a8.61 8.61 0 0 1-1.678.164c-.694 0-1.354-.107-1.976-.323a4.22 4.22 0 0 1-1.646-1.041c-.474-.48-.852-1.103-1.133-1.868S7.55 11.09 7.55 10c0-1.134.157-2.085.47-2.85s.723-1.384 1.224-1.854a4.53 4.53 0 0 1 1.679-1.008 5.86 5.86 0 0 1 1.852-.307c.66 0 1.22.045 1.678.134s.835.192 1.133.313l-.448 1.92c-.254-.12-.555-.21-.902-.265S13.47 6 12.973 6c-.915 0-1.65.325-2.206.977s-.836 1.663-.836 3.03c0 .598.067 1.142.2 1.632s.334.913.603 1.26a2.78 2.78 0 0 0 1.01.812c.402.193.867.3 1.396.3.496 0 .915-.05 1.257-.148a3.74 3.74 0 0 0 .893-.38l.463 1.84c-.354.25-.803.43-1.35.54zm8.698 0c-.545.108-1.105.164-1.678.164-.694 0-1.354-.107-1.976-.323a4.22 4.22 0 0 1-1.646-1.041c-.474-.48-.852-1.103-1.133-1.868s-.42-1.695-.42-2.786c0-1.134.157-2.085.47-2.85s.723-1.384 1.223-1.854 1.062-.804 1.68-1.008 1.233-.307 1.85-.307c.66 0 1.22.045 1.678.134a6.05 6.05 0 0 1 1.133.313l-.446 1.918c-.253-.12-.554-.21-.9-.265S22.166 6 21.67 6c-.915 0-1.65.325-2.206.977s-.836 1.663-.836 3.03c0 .598.067 1.142.2 1.632s.334.913.603 1.26.606.62 1.01.812.868.3 1.396.3c.497 0 .915-.05 1.257-.148s.64-.227.894-.38l.463 1.84c-.353.25-.803.43-1.348.54z"/></svg>