<?xml version="1.0" encoding="utf-8"?>
<!-- Generator: Adobe Illustrator 19.2.1, SVG Export Plug-In . SVG Version: 6.00 Build 0)  -->
<svg version="1.1" id="Layer_1" xmlns="http://www.w3.org/2000/svg" xmlns:xlink="http://www.w3.org/1999/xlink" x="0px" y="0px"
	 width="63px" height="75.1px" viewBox="0 0 63 75.1" style="enable-background:new 0 0 63 75.1;" xml:space="preserve">
<style type="text/css">
	.st0{fill:#81B3D2;}
</style>
<path class="st0" d="M60.2,22.2h-0.1H35.8c13.6-6.8,14.7-11.1,14.2-13.5c-1.1-3.9-5.6-6.9-9.8-5.3c-5.5,2.1-7,10.3-8.5,16.2
	c-1.9-6-3.7-13.6-8-17.5c-1.2-1.1-3-2.2-5.7-2c-4,0.4-9.7,5.3-7.3,10.8c2.2,5.3,9.5,8.7,14.4,11.3H2.8c-1.6,0-2.8,1.3-2.8,2.8v11.2
	c0,1.6,1.3,2.8,2.8,2.8h0.3v36h57v-36h0.1c1.6,0,2.8-1.3,2.8-2.8V25.1C63,23.5,61.7,22.2,60.2,22.2z M41.8,5.9
	c2.1-0.3,4.9,1.3,5.2,3.2c0.4,2.7-3.3,5.2-5,6.3c-2.5,1.7-4.9,2.6-7.2,4C35.6,15.7,37.3,6.5,41.8,5.9z M19.2,15.7
	c-2.2-1.5-6.4-4.4-6.3-7.7c0.1-3.6,5.7-6.5,8.7-3.8c3.8,3.3,5.6,11,7,16.4C25.4,19,22.4,17.8,19.2,15.7z M25.1,72.1H6V39.1h19.1
	V72.1z M25.1,36.1H3V25.2h22.1V36.1z M35.1,72.1h-7.1V25.2h7.1V72.1z M57.1,72.1H38.1V39.1h19.1V72.1z M60,36.1H38.1V25.2H60V36.1z"
	/>
</svg>
