<svg xmlns="http://www.w3.org/2000/svg" width="27" height="35" viewBox="0 0 26.943 34.09"><path d="M13.62.017L13.472 0 0 1.412v24.66L13.473 34.1l13.472-8.015V1.412L13.62.017zm11.4 12.1L13.495 5.334l-.001-.104-.087.05-.088-.056v.11L1.925 12.118v-8.97l11.548-1.212L25.02 3.147v8.98zm-11.614-5.34L24.923 13.5l-4.48 2.64-7.093-4.22-.014 1.415 5.904 3.513-.86.507-5.03-2.992-.014 1.415 3.827 2.275-.782.523-3.03-1.787-.014 1.413 1.853 1.09-1.8 1.08-11.356-6.75 11.37-6.835zm-11.48 8.34l11.41 6.79.016 1.044L5.4 18.234l-.015 1.416 7.98 4.795.018 1.076-7.973-4.74-.013 1.414 8.067 4.847 8.143-4.872-.01-5.177 3.415-2.036v10.02L13.472 31.85 1.925 24.98v-9.852z"/></svg>